<svg width="128" height="64" viewBox="0 0 128 64" fill="none" xmlns="http://www.w3.org/2000/svg">
  <rect x="1" y="1" width="126" height="62" rx="12" fill="#E5E7EB" stroke="#CBD5E1"/>

  <!-- Roof -->
  <path d="M16 24L64 7L112 24V27H16V24Z" fill="#D7DDE5" stroke="#A9B3C0" stroke-width="1.5"/>
  <path d="M16 24H112V27H16V24Z" fill="#C9962E"/>

  <!-- Top beam -->
  <rect x="16" y="27" width="96" height="4" rx="1" fill="#DCE3EB" stroke="#A9B3C0" stroke-width="1"/>

  <!-- BANK text -->
  <text x="38" y="22" fill="#D4A543" font-size="10" font-family="Arial, Helvetica, sans-serif" font-weight="900">BANK</text>

  <!-- Columns -->
  <rect x="24" y="31" width="8" height="20" rx="2" fill="#EFF4FA" stroke="#B7C0CC"/>
  <rect x="38" y="31" width="8" height="20" rx="2" fill="#EFF4FA" stroke="#B7C0CC"/>
  <rect x="52" y="31" width="8" height="20" rx="2" fill="#EFF4FA" stroke="#B7C0CC"/>
  <rect x="68" y="31" width="8" height="20" rx="2" fill="#EFF4FA" stroke="#B7C0CC"/>
  <rect x="82" y="31" width="8" height="20" rx="2" fill="#EFF4FA" stroke="#B7C0CC"/>
  <rect x="96" y="31" width="8" height="20" rx="2" fill="#EFF4FA" stroke="#B7C0CC"/>

  <!-- Doors / windows -->
  <rect x="58" y="33" width="12" height="18" rx="1.5" fill="#93C5FD" stroke="#1E3A8A"/>
  <path d="M64 33V51" stroke="#1E3A8A" stroke-width="1.5"/>

  <!-- Bottom beam and steps -->
  <rect x="16" y="51" width="96" height="4" rx="1" fill="#DCE3EB" stroke="#A9B3C0" stroke-width="1"/>
  <rect x="46" y="55" width="36" height="4" rx="1" fill="#D4DCE6" stroke="#A9B3C0" stroke-width="1"/>
  <rect x="42" y="59" width="44" height="3" rx="1" fill="#E6EDF5"/>
</svg>
