<svg width="96" height="64" viewBox="0 0 96 64" fill="none" xmlns="http://www.w3.org/2000/svg">
  <rect x="1" y="1" width="94" height="62" rx="12" fill="#ECEFF1" stroke="#CFD8DC"/>

  <!-- Banknote -->
  <g transform="translate(7 8) rotate(-18 34 17)">
    <rect x="1.6" y="1.6" width="68.8" height="33.8" rx="4.2" fill="#C2DBD2" stroke="#5E3B26" stroke-width="3.2"/>
    <rect x="6" y="6" width="60" height="25" rx="3" fill="#A9C9BF"/>
    <circle cx="33" cy="18.5" r="6.5" fill="#E7DFC8"/>
    <path d="M11 10L16 10" stroke="#3F6D94" stroke-width="2.2" stroke-linecap="round"/>
    <path d="M11 14L15 14" stroke="#3F6D94" stroke-width="2.2" stroke-linecap="round"/>
    <path d="M52 10C55 8 61 8 64 10" stroke="#7F8C8D" stroke-width="2" stroke-linecap="round"/>
    <path d="M54 16C57 13 60 13 62 16" stroke="#7F8C8D" stroke-width="2" stroke-linecap="round"/>
    <path d="M14 27H27" stroke="#3F6D94" stroke-width="2.8" stroke-linecap="round"/>
    <text x="58" y="28" fill="#F0E5C8" font-size="5" font-family="Arial, Helvetica, sans-serif" font-weight="700">1000</text>
  </g>

  <!-- Coins -->
  <g>
    <circle cx="48" cy="48" r="8.3" fill="#C8CCD0" stroke="#6A4632" stroke-width="2"/>
    <text x="41.4" y="50.9" fill="#8A8F95" font-size="5.5" font-family="Arial, Helvetica, sans-serif" font-weight="700">100</text>

    <circle cx="61" cy="42" r="8" fill="#C88D5E" stroke="#6A4632" stroke-width="2"/>
    <text x="56.6" y="44.9" fill="#A96E3D" font-size="5.5" font-family="Arial, Helvetica, sans-serif" font-weight="700">10</text>

    <circle cx="61" cy="53" r="10" fill="#CFB378" stroke="#6A4632" stroke-width="2"/>
    <text x="54.2" y="56.1" fill="#E4D2A0" font-size="7" font-family="Arial, Helvetica, sans-serif" font-weight="700">500</text>
  </g>
</svg>
