<svg width="96" height="64" viewBox="0 0 96 64" fill="none" xmlns="http://www.w3.org/2000/svg">
  <rect x="1" y="1" width="94" height="62" rx="12" fill="#E5E7EB" stroke="#CBD5E1"/>

  <!-- VISA row -->
  <text x="13" y="24" fill="#1E40AF" font-size="17" font-family="Arial, Helvetica, sans-serif" font-weight="900" letter-spacing="0.6">VISA</text>
  <path d="M70 10C74 14 74 22 70 26" stroke="#1E40AF" stroke-width="3" stroke-linecap="round"/>
  <path d="M76 8C82 14 82 22 76 28" stroke="#1E40AF" stroke-width="3" stroke-linecap="round"/>
  <path d="M82 6C90 14 90 22 82 30" stroke="#1E40AF" stroke-width="3" stroke-linecap="round"/>

  <!-- MasterCard row -->
  <rect x="12" y="35" width="48" height="20" rx="4" fill="#0B0B0B"/>
  <circle cx="30" cy="45" r="8" fill="#FF0033"/>
  <circle cx="42" cy="45" r="8" fill="#FDB022" fill-opacity="0.95"/>
  <path d="M70 34C74 38 74 46 70 50" stroke="#0B0B0B" stroke-width="3" stroke-linecap="round"/>
  <path d="M76 32C82 38 82 46 76 52" stroke="#0B0B0B" stroke-width="3" stroke-linecap="round"/>
  <path d="M82 30C90 38 90 46 82 54" stroke="#0B0B0B" stroke-width="3" stroke-linecap="round"/>
</svg>
