<svg xmlns="http://www.w3.org/2000/svg" viewBox="0 0 24 24" aria-hidden="true">
  <path d="M6.77 21.7c.155.065.32.095.48.095l.005-.005c.32 0 .64-.125.88-.365L11.56 18h7.69A2.755 2.755 0 0 0 22 15.25v-9.5A2.755 2.755 0 0 0 19.25 3H4.75A2.755 2.755 0 0 0 2 5.75v9.5A2.755 2.755 0 0 0 4.75 18H6v2.545c0 .51.3.96.77 1.155ZM3.5 5.75c0-.69.56-1.25 1.25-1.25h14.5c.69 0 1.25.56 1.25 1.25v9.5c0 .69-.56 1.25-1.25 1.25h-8.31L7.5 19.94V16.5H4.75c-.69 0-1.25-.56-1.25-1.25v-9.5ZM17.5 8h-11v1.5h11V8Zm-4 3.5h-7V13h7v-1.5Z" fill="#000000"/>
</svg>
